Coordinates
version=1
nRows=54
nColumns=12
inDegrees=yes

Units are S.I. units (second, meters, Newtons, ...)
Angles are in degrees

endheader
time	SC_y	SC_z	SC_x	AC_y	AC_z	AC_x	GH_y	GH_z	GH_yy	EL_x	PS_y
       0.0              -57.33          7.717          16.11          53.36          1.605         -1.759         -41.92         -9.018          36.23           74.3          158.3
   0.02844              -57.33          7.719          16.12          53.36          1.604         -1.756         -41.92         -9.018          36.24          74.31          158.2
   0.05687              -57.32           7.72          16.12          53.36          1.603         -1.754         -41.91         -9.017          36.25          74.32          158.2
   0.08531              -57.32          7.722          16.12          53.36          1.602         -1.751          -41.9         -9.017          36.26          74.33          158.2
    0.1137              -57.31          7.724          16.13          53.36          1.601         -1.748          -41.9         -9.016          36.26          74.34          158.2
    0.1422              -57.31          7.726          16.13          53.36          1.599         -1.745         -41.89         -9.016          36.27          74.35          158.2
    0.1706               -57.3          7.728          16.14          53.36          1.598         -1.742         -41.88         -9.016          36.28          74.36          158.1
    0.1991              -57.29           7.73          16.15          53.36          1.597         -1.738         -41.87         -9.015           36.3          74.37          158.1
    0.2275              -57.29          7.733          16.15          53.36          1.595         -1.734         -41.86         -9.015          36.31          74.39          158.1
    0.2559              -57.28          7.735          16.16          53.36          1.593          -1.73         -41.86         -9.014          36.32           74.4          158.1
    0.2844              -57.27          7.738          16.17          53.37          1.592         -1.726         -41.85         -9.013          36.33          74.42          158.0
    0.3128              -57.26          7.741          16.17          53.37           1.59         -1.721         -41.83         -9.013          36.35          74.43          158.0
    0.3412              -57.25          7.745          16.18          53.37          1.588         -1.716         -41.82         -9.012          36.36          74.45          158.0
    0.3697              -57.24          7.748          16.19          53.37          1.585          -1.71         -41.81         -9.011          36.38          74.47          158.0
    0.3981              -57.23          7.752           16.2          53.37          1.583         -1.704          -41.8          -9.01           36.4          74.49          157.9
    0.4266              -57.22          7.756          16.21          53.37           1.58         -1.698         -41.78         -9.009          36.42          74.51          157.9
     0.455              -57.21          7.761          16.22          53.37          1.577          -1.69         -41.77         -9.008          36.44          74.54          157.8
    0.4834              -57.19          7.766          16.24          53.38          1.574         -1.683         -41.75         -9.007          36.47          74.56          157.8
    0.5119              -57.18          7.771          16.25          53.38          1.571         -1.674         -41.73         -9.006          36.49          74.59          157.7
    0.5403              -57.16          7.777          16.27          53.38          1.567         -1.665         -41.71         -9.005          36.52          74.63          157.7
    0.5687              -57.14          7.783          16.28          53.38          1.563         -1.655         -41.68         -9.003          36.55          74.66          157.6
    0.5972              -57.12           7.79           16.3          53.39          1.559         -1.644         -41.66         -9.002          36.59           74.7          157.5
    0.6256               -57.1          7.798          16.32          53.39          1.554         -1.631         -41.63           -9.0          36.62          74.74          157.5
     0.654              -57.07          7.807          16.34          53.39          1.548         -1.618          -41.6         -8.998          36.67          74.79          157.4
    0.6825              -57.05          7.816          16.37           53.4          1.542         -1.603         -41.57         -8.996          36.71          74.84          157.3
    0.7109              -57.01          7.827           16.4           53.4          1.536         -1.586         -41.53         -8.994          36.76           74.9          157.2
    0.7394              -56.98          7.839          16.43          53.41          1.528         -1.567         -41.48         -8.991          36.82          74.96          157.1
    0.7678              -56.94          7.853          16.46          53.41          1.519         -1.545         -41.44         -8.988          36.89          75.04          156.9
    0.7962               -56.9          7.868           16.5          53.42           1.51         -1.521         -41.38         -8.985          36.96          75.12          156.8
    0.8247              -56.85          7.886          16.55          53.43          1.499         -1.494         -41.32         -8.981          37.05          75.22          156.6
    0.8531              -56.79          7.905           16.6          53.44          1.486         -1.463         -41.25         -8.976          37.14          75.32          156.4
    0.8815              -56.72          7.928          16.66          53.45          1.472         -1.427         -41.17         -8.971          37.25          75.45          156.2
      0.91              -56.65          7.955          16.72          53.46          1.455         -1.385         -41.07         -8.966          37.38          75.59          156.0
    0.9384              -56.56          7.985           16.8          53.47          1.436         -1.337         -40.96         -8.959          37.53          75.76          155.7
    0.9669              -56.45          8.021           16.9          53.49          1.413         -1.281         -40.83         -8.951           37.7          75.95          155.3
    0.9953              -56.33          8.063           17.0           53.5          1.387         -1.214         -40.68         -8.942          37.91          76.18          154.9
     1.024              -56.19          8.113          17.13          53.52          1.355         -1.135          -40.5         -8.931          38.15          76.45          154.4
     1.052              -56.01          8.173          17.29          53.55          1.317         -1.041         -40.29         -8.917          38.44          76.78          153.9
     1.081               -55.8          8.246          17.48          53.58          1.272        -0.9264         -40.03         -8.901          38.79          77.17          153.2
     1.109              -55.55          8.335           17.7          53.62          1.216        -0.7865         -39.71         -8.882          39.22          77.65          152.3
     1.137              -55.23          8.445          17.99          53.67          1.147         -0.614         -39.32         -8.858          39.76          78.25          151.2
     1.166              -54.83          8.581          18.34          53.72           1.06        -0.3988         -38.83         -8.827          40.42          78.99          149.9
     1.194              -54.33          8.754          18.78           53.8         0.9519        -0.1278         -38.21         -8.789          41.25          79.92          148.3
     1.223               -53.7          8.972          19.35          53.89          0.814         0.2168         -37.43         -8.741          42.31          81.11          146.2
     1.251              -52.89          9.253          20.07          54.01         0.6375         0.6578         -36.42         -8.679          43.67          82.63          143.5
      1.28              -51.85          9.612           21.0          54.16         0.4109          1.224         -35.14           -8.6          45.41          84.58          140.0
     1.308              -50.52          10.07          22.18          54.36         0.1215          1.947         -33.49         -8.499          47.64          87.07          135.6
     1.337              -48.85          10.65          23.67           54.6        -0.2423          2.856         -31.42         -8.371          50.44          90.21          130.0
     1.365              -46.81          11.35          25.49           54.9        -0.6857          3.963          -28.9         -8.216          53.85          94.02          123.2
     1.393              -44.45          12.17          27.59          55.25           -1.2          5.247         -25.98         -8.036           57.8          98.45          115.4
     1.422               -41.9          13.05          29.87          55.63         -1.756          6.638         -22.82         -7.841          62.08          103.2          106.9
      1.45              -39.34          13.94          32.15           56.0         -2.313          8.028         -19.66         -7.647          66.36          108.0          98.37
     1.479              -36.98          14.75          34.25          56.35         -2.827          9.312         -16.74         -7.467          70.31          112.5          90.52
     1.507              -34.94          15.46          36.07          56.65          -3.27          10.42         -14.22         -7.311          73.72          116.3          83.74
